<svg id="Layer_1" data-name="Layer 1" xmlns="http://www.w3.org/2000/svg" viewBox="0 0 433.902 183.541"><defs><style>.cls-1{fill:#fff;}</style></defs><title>logo_standard_white</title><polygon class="cls-1" points="260.557 78.51 223.903 86.828 223.903 26.676 260.557 42.967 260.557 78.51"/><polygon class="cls-1" points="176.825 78.51 213.479 86.828 213.479 26.676 176.825 42.967 176.825 78.51"/><polygon class="cls-1" points="284.421 18.595 246.884 0 223.808 17.095 262.457 34.578 284.421 18.595"/><polygon class="cls-1" points="152.709 18.706 190.497 0 213.573 17.095 174.673 34.689 152.709 18.706"/><path class="cls-1" d="M320.562,143.975h0a23.969,23.969,0,0,0-7.673-6.3c-3.376-1.765-8.214-2.394-11.615-2.394a22.66,22.66,0,0,0-10.607,2.394,23.948,23.948,0,0,0-7.673,6.3,27.275,27.275,0,0,0-4.689,9,36.641,36.641,0,0,0,0,21.195,27.25,27.25,0,0,0,4.689,9,23.307,23.307,0,0,0,7.681,6.252,22.848,22.848,0,0,0,10.5,2.34,27.709,27.709,0,0,0,11.708-2.34,23.341,23.341,0,0,0,7.682-6.252,27.245,27.245,0,0,0,4.688-9,36.622,36.622,0,0,0,0-21.2A27.316,27.316,0,0,0,320.562,143.975Zm-19.289,43.949a19.033,19.033,0,0,1-8.858-1.977,19.51,19.51,0,0,1-6.445-5.329,23.4,23.4,0,0,1-3.952-7.764,32.24,32.24,0,0,1-1.333-9.278,31.864,31.864,0,0,1,1.333-9.175,23.443,23.443,0,0,1,3.952-7.764,20.118,20.118,0,0,1,6.453-5.386,18.665,18.665,0,0,1,8.85-2.022,22.994,22.994,0,0,1,9.858,2.022,20.148,20.148,0,0,1,6.454,5.385,23.479,23.479,0,0,1,3.953,7.765,31.932,31.932,0,0,1,1.331,9.175,32.3,32.3,0,0,1-1.331,9.278,23.449,23.449,0,0,1-3.953,7.765,19.563,19.563,0,0,1-6.446,5.329A23.444,23.444,0,0,1,301.273,187.924Z" transform="translate(-13.049 -8.23)"/><polygon class="cls-1" points="367.763 176.594 352.399 128.557 352.31 128.277 347.762 128.277 332.215 176.581 317.282 128.365 317.254 128.277 313.319 128.277 330.069 182.43 334.319 182.43 350.083 134.054 365.661 182.152 365.752 182.43 369.789 182.43 387.016 128.44 387.068 128.277 383.023 128.277 367.763 176.594"/><path class="cls-1" d="M445.513,146.617a16.9,16.9,0,0,0-10.325-10.054,30.146,30.146,0,0,0-8.9-1.275,22.815,22.815,0,0,0-7.319,1.117,18.6,18.6,0,0,0-10.008,7.871c-.254.408-.5.832-.72,1.267v-9.036h-3.948V190.66h3.948V160.128a27.336,27.336,0,0,1,1.178-8.051,20.087,20.087,0,0,1,3.442-6.648,16.616,16.616,0,0,1,5.624-4.515,17.318,17.318,0,0,1,7.8-1.678,27.291,27.291,0,0,1,7.169.919A13.37,13.37,0,0,1,438.386,143a13.653,13.653,0,0,1,3.368,4.942,19.578,19.578,0,0,1,1.249,7.41V190.66h3.948V155.046A23.133,23.133,0,0,0,445.513,146.617Z" transform="translate(-13.049 -8.23)"/><path class="cls-1" d="M274.713,186.205c-1.648,1.84-5.12,1.526-5.268,1.51,0,0-.6-.06-1.024-.143a3.468,3.468,0,0,1-1.757-.764,4.974,4.974,0,0,1-1.389-2.052,11.741,11.741,0,0,1-.588-4.212V141.461h11.789v-3.948H264.687V120.46h-3.95v17.053h-9.552v3.948h9.552v39.49c0,4.009.954,6.837,2.834,8.408a9.785,9.785,0,0,0,5.027,2.189v.013l.4.045c.076.008.486.051,1.082.054l.153,0,.4-.014h0c1.776-.061,4.928-.524,7-2.833l.269-.3-2.917-2.611Z" transform="translate(-13.049 -8.23)"/><path class="cls-1" d="M43.551,117.394a30.231,30.231,0,0,1,11.585,1.981,21.691,21.691,0,0,1,7.775,5.234,20.144,20.144,0,0,1,4.37,7.418,27.724,27.724,0,0,1,0,17.227,20.052,20.052,0,0,1-4.37,7.469,21.679,21.679,0,0,1-7.775,5.234,30.231,30.231,0,0,1-11.585,1.981H29v26.017H13.049V117.394Zm-4.37,34.146a33.414,33.414,0,0,0,5.284-.406,12.293,12.293,0,0,0,4.472-1.575,8.582,8.582,0,0,0,3.1-3.3,13.937,13.937,0,0,0,0-11.179,8.608,8.608,0,0,0-3.1-3.3,12.367,12.367,0,0,0-4.472-1.575,33.533,33.533,0,0,0-5.284-.406H29V151.54Z" transform="translate(-13.049 -8.23)"/><path class="cls-1" d="M69.643,153.573a16.759,16.759,0,0,1,2.541-8.435,17.3,17.3,0,0,1,5.691-5.387,24.811,24.811,0,0,1,7.775-2.9,44.25,44.25,0,0,1,8.689-.863,58.982,58.982,0,0,1,8.028.558,24.64,24.64,0,0,1,7.419,2.185,14.616,14.616,0,0,1,5.488,4.522,12.641,12.641,0,0,1,2.134,7.673v27.338c0,2.372-.137,11.687-.137,11.687H103.43c0-.48.223-4.2.157-5.082a18.786,18.786,0,0,1-8.13,4.98,32.661,32.661,0,0,1-9.554,1.424,25.784,25.784,0,0,1-7.011-.915,16.039,16.039,0,0,1-5.692-2.846,13.23,13.23,0,0,1-3.811-4.878,16.5,16.5,0,0,1-1.372-7.013,15.3,15.3,0,0,1,1.576-7.367,13.157,13.157,0,0,1,4.064-4.624,18.254,18.254,0,0,1,5.692-2.592A61.476,61.476,0,0,1,85.8,159.67q3.252-.507,6.4-.812a38.694,38.694,0,0,0,5.589-.915,9.75,9.75,0,0,0,3.862-1.779,3.9,3.9,0,0,0,1.321-3.405,7.659,7.659,0,0,0-.762-3.709,5.615,5.615,0,0,0-2.033-2.134,8.034,8.034,0,0,0-2.947-1.017,24.318,24.318,0,0,0-3.608-.254,10.95,10.95,0,0,0-6.707,1.83q-2.439,1.828-2.846,6.1Zm33.334,10.67a6.45,6.45,0,0,1-2.286,1.271,23.5,23.5,0,0,1-2.948.763q-1.577.3-3.3.507t-3.455.508a26.054,26.054,0,0,0-3.2.814,9.454,9.454,0,0,0-2.744,1.371,6.516,6.516,0,0,0-1.88,2.185,7.025,7.025,0,0,0-.712,3.354,6.778,6.778,0,0,0,.712,3.252,5.434,5.434,0,0,0,1.931,2.083,8.157,8.157,0,0,0,2.845,1.068,18.17,18.17,0,0,0,3.354.3A12.748,12.748,0,0,0,97.9,180.3a9.527,9.527,0,0,0,3.455-3.4,10.9,10.9,0,0,0,1.372-4.014,27.859,27.859,0,0,0,.254-3.252Z" transform="translate(-13.049 -8.23)"/><path class="cls-1" d="M138.438,137.414v9.756h.2a17.7,17.7,0,0,1,2.744-4.522,17.989,17.989,0,0,1,3.963-3.558,19.422,19.422,0,0,1,4.777-2.286,17.257,17.257,0,0,1,5.284-.812,11.285,11.285,0,0,1,3.151.507v13.415q-1.017-.2-2.44-.355a25.68,25.68,0,0,0-2.743-.153,15.381,15.381,0,0,0-6.707,1.321,11.61,11.61,0,0,0-4.421,3.608,14.426,14.426,0,0,0-2.388,5.335,28.945,28.945,0,0,0-.712,6.607v23.678H124.718V137.414Z" transform="translate(-13.049 -8.23)"/><path class="cls-1" d="M197.369,135.992v13.3H186.8v23.8q0,3.657,1.22,4.877t4.878,1.22q1.22,0,2.338-.1c1.387-.123-.193.164.97-.07l1.164,10.944a34.479,34.479,0,0,1-4.066.407q-2.236.1-4.37.1a42.106,42.106,0,0,1-6.351-.457,14.98,14.98,0,0,1-5.285-1.778,9.4,9.4,0,0,1-3.607-3.76,13.418,13.418,0,0,1-1.321-6.4V149.291h-8.741v-13.3h8.741v-14.33H186.8v14.33Z" transform="translate(-13.049 -8.23)"/><path class="cls-1" d="M215.693,176.9a8.427,8.427,0,0,0,2.49,2.744,10.645,10.645,0,0,0,3.506,1.575,16.453,16.453,0,0,0,4.116.509,15.378,15.378,0,0,0,3.2-.356,10.854,10.854,0,0,0,3.049-1.119,6.894,6.894,0,0,0,2.287-2.032,5.343,5.343,0,0,0,.914-3.2q0-3.252-4.319-4.878a86.463,86.463,0,0,0-12.043-3.252q-3.15-.711-6.148-1.677a20.932,20.932,0,0,1-5.335-2.541,12.322,12.322,0,0,1-3.761-3.963,11.221,11.221,0,0,1-1.422-5.844,15.812,15.812,0,0,1,1.981-8.333,14.623,14.623,0,0,1,5.234-5.133,22.976,22.976,0,0,1,7.317-2.642,45.217,45.217,0,0,1,8.334-.761,41.723,41.723,0,0,1,8.283.812,21.949,21.949,0,0,1,7.164,2.744,16.481,16.481,0,0,1,5.234,5.132,17.266,17.266,0,0,1,2.49,8.079h-13.72q-.3-4.165-3.151-5.639a14.406,14.406,0,0,0-6.707-1.475,24.807,24.807,0,0,0-2.642.153,8.792,8.792,0,0,0-2.591.661,5.353,5.353,0,0,0-1.983,1.473,3.893,3.893,0,0,0-.812,2.592,3.951,3.951,0,0,0,1.423,3.15,10.927,10.927,0,0,0,3.709,1.982,46,46,0,0,0,5.234,1.371q2.946.611,6,1.322a61.409,61.409,0,0,1,6.148,1.728,20.308,20.308,0,0,1,5.336,2.693,13.053,13.053,0,0,1,3.76,4.166,12.241,12.241,0,0,1,1.423,6.15,15.96,15.96,0,0,1-7.521,14.328,22.252,22.252,0,0,1-7.673,3,44.865,44.865,0,0,1-8.791.864,43.523,43.523,0,0,1-8.943-.915,23.6,23.6,0,0,1-7.774-3.049,17.435,17.435,0,0,1-5.59-5.64,17.651,17.651,0,0,1-2.388-8.791h13.72A7.908,7.908,0,0,0,215.693,176.9Z" transform="translate(-13.049 -8.23)"/></svg>