<?xml version="1.0" encoding="UTF-8"?>
<svg id="Layer_2" data-name="Layer 2" xmlns="http://www.w3.org/2000/svg" viewBox="0 0 634.92 152.03">
  <defs>
    <style>
      .cls-1, .cls-2 {
        fill-rule: evenodd;
      }

      .cls-1, .cls-2, .cls-3, .cls-4, .cls-5, .cls-6 {
        stroke-width: 0px;
      }

      .cls-1, .cls-3 {
        fill: #2e3192;
      }

      .cls-2, .cls-4 {
        fill: #ec008c;
      }

      .cls-5 {
        stroke: #ec008c;
      }

      .cls-5, .cls-6 {
        fill: none;
        stroke-miterlimit: 3.86;
      }

      .cls-6 {
        stroke: #2e3192;
      }
    </style>
  </defs>
  <g id="Foreground">
    <path class="cls-2" d="m595.18,47.69c7.77,1.15,13.5,3.24,17.21,6.26,4.42,3.63,6.64,9.1,6.64,16.4,0,19.6-11.6,29.4-34.8,29.4h-17.48c-2.88,0-4.32-1.13-4.32-3.4s1.44-3.45,4.32-3.45h16.72c8.74,0,15.32-1.4,19.74-4.21,5.47-3.45,8.2-9.26,8.2-17.42,0-5.07-1.22-8.86-3.67-11.38-2.59-2.59-7.05-4.37-13.38-5.34l-12.14-1.83c-5.97-.9-10.32-2.07-13.06-3.51-4.5-2.3-6.74-5.82-6.74-10.57,0-9.28,6.38-13.92,19.15-13.92h23.31c2.95,0,4.42,1.12,4.42,3.34,0,1.08-.38,1.93-1.13,2.54-.72.58-1.82.86-3.29.86h-23.31c-3.67,0-6.26.29-7.77.86-2.55.97-3.83,2.97-3.83,5.99,0,2.63,1.44,4.53,4.32,5.72,1.44.61,4.01,1.19,7.71,1.73l13.16,1.94Zm-48.06,13.22c.72,6.01,1.08,10.27,1.08,12.79,0,8.27-2.63,14.82-7.88,19.64-5.11,4.64-11.83,6.96-20.18,6.96s-15.05-2.34-20.12-7.01c-5.22-4.78-7.82-11.31-7.82-19.58,0-2.09.34-6.46,1.03-13.11l.38-3.67,3.13-28.7c.29-2.7,1.49-4.05,3.61-4.05,2.52,0,3.77,1.29,3.78,3.88v.86l-3.51,31.56c-.68,7.98-1.03,11.94-1.03,11.87,0,14.13,6.85,21.2,20.55,21.2s20.66-7.07,20.66-21.2c-.76-6.4-1.13-10.9-1.13-13.49,0-.11-.04-.22-.11-.32l-3.29-30.48c0-2.59,1.26-3.88,3.78-3.88,2.12,0,3.33,1.35,3.61,4.05l3.45,32.69Zm-123.04,31.67h17.96c4.6,0,8.18-.36,10.74-1.08,3.6-.97,6.62-2.82,9.06-5.56,4.14-4.64,6.2-10.5,6.2-17.59,0-11.36-4.32-20.54-12.95-27.51-8.06-6.47-17.89-9.71-29.51-9.71h-1.51v61.45Zm-2.43,7.17c-1.83,0-3.09-.25-3.78-.76-.83-.61-1.24-1.8-1.24-3.56V28.17c0-1.51.36-2.55,1.08-3.13.76-.57,2.57-.86,5.45-.86,14.53,0,26.72,3.61,36.58,10.84,10.97,8.06,16.45,19.1,16.45,33.12,0,9.28-2.99,16.98-8.96,23.09-3.56,3.63-7.86,6.06-12.89,7.28-3.42.83-8.4,1.24-14.94,1.24h-17.75Zm-73.7-57.9c-3.83,5.32-5.83,12.08-5.83,20.46s2.02,15.02,5.88,20.34c4.26,5.86,10.03,8.76,17.61,8.76s13.43-2.9,17.61-8.7c3.82-5.28,5.83-12.02,5.83-20.4,0-8.38-2.01-15.14-5.83-20.46-4.19-5.83-9.94-8.74-17.6-8.75-7.66,0-13.44,2.91-17.66,8.75Zm45.1-8.26c6.47,7.87,9.65,17.51,9.66,28.72,0,11.25-3.18,20.87-9.66,28.68-6.97,8.38-16.2,12.57-27.43,12.57-11.39,0-20.69-4.13-27.64-12.45-6.5-7.75-9.67-17.41-9.67-28.79s3.2-20.91,9.72-28.78c7-8.41,16.29-12.62,27.59-12.62,11.24,0,20.47,4.24,27.44,12.69Zm-125.29,8.97c10.02.24,18.69,2.31,25.91,6.34,5.32-3.56,7.21-6.84,7.21-9.68,0-2.73-1.87-5.36-11.14-5.36h-21.98v8.7Zm43.72,23.14c3.15,5.23,5.35,10.84,6.6,16.79l1.62,7.61c.44,2.07.65,4.07.65,5.98,0,3.91-2.03,7.04-6.4,7.04-4.88,0-6.53-4.76-7.02-8.98-.38-3.32-.76-5.81-1.13-7.46-2.33-10.21-6.91-18.07-13.63-23.77-7.17-6.06-15.26-8.87-24.38-8.5l-.03,41.57c0,4.08-2.19,7.15-6.61,7.15-4.43,0-6.5-3.16-6.5-7.15V30.27c0-2.46.35-5.53,2.54-7.11.93-.65,2.12-.92,3.07-1.06.97-.14,2.22-.22,3.75-.22h27.62c13.78,0,22.74,4.96,22.74,16.54,0,4.3-1.7,8.27-4.78,11.87-1.4,1.65-3.45,3.53-6.06,5.63,3.12,2.93,5.78,6.2,7.95,9.79Zm-68.77-28.58c0,14.24-16.22,23.49-43.05,29.47v29.38c0,4.08-2.19,7.15-6.61,7.15-4.43,0-6.5-3.16-6.5-7.15V30.27c0-2.46.35-5.53,2.54-7.11.93-.65,2.12-.92,3.07-1.06.97-.14,2.22-.22,3.75-.22h28.97c11.04,0,17.83,4.93,17.83,15.24Zm-25.98,11.75c10.01-4.37,13.14-8.36,13.14-11.32,0-1.92-.83-3.69-6.55-3.69h-23.65v20.64c5.97-1.37,11.66-3.25,17.07-5.63Z"/>
    <path class="cls-1" d="m235.84,142.24c.14.99.41,1.72.81,2.21.73.89,1.99,1.33,3.76,1.33,1.06,0,1.93-.12,2.59-.35,1.26-.45,1.89-1.28,1.89-2.5,0-.71-.31-1.26-.94-1.66-.63-.38-1.61-.72-2.94-1.01l-2.29-.51c-2.25-.51-3.8-1.06-4.66-1.66-1.46-1-2.18-2.55-2.18-4.67,0-1.93.7-3.54,2.11-4.82,1.41-1.28,3.47-1.92,6.2-1.92,2.28,0,4.21.61,5.82,1.82,1.61,1.2,2.46,2.95,2.53,5.24h-4.34c-.08-1.3-.64-2.22-1.7-2.77-.7-.36-1.58-.54-2.62-.54-1.16,0-2.09.23-2.78.7-.69.47-1.04,1.12-1.04,1.96,0,.77.34,1.35,1.03,1.73.44.25,1.38.55,2.81.89l3.72.89c1.63.39,2.86.91,3.69,1.57,1.29,1.02,1.93,2.49,1.93,4.41s-.76,3.61-2.27,4.92c-1.16,1-2.68,1.61-4.57,1.84v2.68h-4.23v-2.75c-1.69-.27-3.1-.85-4.22-1.74-1.61-1.29-2.42-3.06-2.42-5.3h4.31Zm394.64,2.3h4.44v4.37h-4.44v-4.37Zm-11.87-11.6h4.23v15.97h-4.23v-15.97Zm4.23-1.9h-4.23v-3.85h4.23v3.85Zm-14.26-3.72v3.82h-6.46v17.77h-4.54v-17.77h-6.49v-3.82h17.49Zm-65.53,17.23h4.44v4.37h-4.44v-4.37Zm-10.53-16.76c1.51.5,2.74,1.41,3.68,2.74.75,1.07,1.26,2.24,1.54,3.49.27,1.25.41,2.44.41,3.57,0,2.87-.58,5.3-1.73,7.29-1.56,2.69-3.97,4.03-7.24,4.03h-9.3v-21.59h9.3c1.34.02,2.45.18,3.34.47Zm-8.26,3.28v14.09h4.16c2.13,0,3.61-1.05,4.45-3.15.46-1.15.69-2.52.69-4.12,0-2.2-.35-3.88-1.04-5.05-.68-1.18-2.05-1.77-4.1-1.77h-4.16Zm-14.69-3.75v3.82h-6.46v17.77h-4.54v-17.77h-6.49v-3.82h17.49Zm-41.68,0h4.51v17.71h10.69v3.88h-15.2v-21.59Zm-26.31,0v3.82h-6.46v17.77h-4.54v-17.77h-6.49v-3.82h17.49Zm-27.4,3.82h-11.43v4.58h10.49v3.75h-10.49v5.55h11.95v3.88h-16.36v-21.59h15.83v3.82Zm-31.12-3.27c.82.34,1.51.84,2.08,1.51.47.55.84,1.15,1.11,1.82.27.66.41,1.42.41,2.27,0,1.03-.26,2.04-.78,3.03-.52.99-1.37,1.68-2.56,2.09,1,.4,1.7.97,2.11,1.71.42.73.63,1.86.63,3.37v1.45c0,.99.04,1.66.12,2.01.12.56.39.97.82,1.23v.54h-4.97c-.14-.48-.23-.86-.29-1.16-.12-.61-.18-1.23-.19-1.86l-.03-2.01c-.02-1.38-.27-2.29-.76-2.75-.48-.46-1.38-.69-2.71-.69h-4.66v8.47h-4.41v-21.59h10.59c1.51.03,2.68.22,3.49.56Zm-9.67,3.19v5.8h5.11c1.02,0,1.78-.12,2.29-.35.9-.41,1.35-1.22,1.35-2.43,0-1.31-.43-2.19-1.3-2.64-.49-.25-1.22-.38-2.2-.38h-5.24Zm-78.46,1.87h4.23v15.97h-4.23v-15.97Zm4.23-1.9h-4.23v-3.85h4.23v3.85Zm47.32-3.72h5.1l7.65,21.59h-4.89l-1.39-4.44h-7.95l-1.49,4.44h-4.72l7.7-21.59Zm-.28,13.43h5.48l-2.7-8.5-2.78,8.5Zm-32.39-11.18c1.76-1.78,3.99-2.67,6.71-2.67,3.63,0,6.29,1.19,7.97,3.57.93,1.34,1.43,2.68,1.49,4.03h-4.51c-.29-1.03-.67-1.82-1.13-2.34-.82-.94-2.04-1.41-3.65-1.41s-2.93.66-3.88,1.99c-.95,1.32-1.42,3.19-1.42,5.61s.5,4.24,1.49,5.45c1.01,1.2,2.28,1.8,3.82,1.8s2.79-.52,3.62-1.55c.46-.56.84-1.39,1.14-2.5h4.47c-.39,2.35-1.39,4.27-3,5.74-1.6,1.47-3.66,2.21-6.17,2.21-3.11,0-5.55-1-7.32-2.99-1.78-2-2.67-4.75-2.67-8.23,0-3.77,1.01-6.67,3.03-8.72Zm-28.41-2.26v3.82h-6.46v17.77h-4.54v-17.77h-6.49v-3.82h17.49Zm-64.69,21.59h-4.48v-21.59h4.48v21.59Zm-20.82-21.12c1.51.5,2.74,1.41,3.68,2.74.75,1.07,1.26,2.24,1.54,3.49.27,1.25.41,2.44.41,3.57,0,2.87-.58,5.3-1.73,7.29-1.56,2.69-3.97,4.03-7.24,4.03h-9.3v-21.59h9.3c1.34.02,2.45.18,3.34.47Zm-8.26,3.28v14.09h4.16c2.13,0,3.61-1.05,4.45-3.15.46-1.15.69-2.52.69-4.12,0-2.2-.35-3.88-1.04-5.05-.68-1.18-2.05-1.77-4.1-1.77h-4.16Zm376.73,11.18c.14.99.41,1.72.81,2.21.73.89,1.99,1.33,3.76,1.33,1.06,0,1.93-.12,2.59-.35,1.26-.45,1.89-1.28,1.89-2.5,0-.71-.31-1.26-.94-1.66-.63-.38-1.61-.72-2.94-1.01l-2.29-.51c-2.25-.51-3.8-1.06-4.66-1.66-1.46-1-2.18-2.55-2.18-4.67,0-1.93.7-3.54,2.11-4.82,1.41-1.28,3.47-1.92,6.2-1.92,2.28,0,4.21.61,5.82,1.82,1.61,1.2,2.46,2.95,2.53,5.24h-4.34c-.08-1.3-.64-2.22-1.7-2.77-.7-.36-1.58-.54-2.62-.54-1.16,0-2.09.23-2.78.7-.69.47-1.04,1.12-1.04,1.96,0,.77.34,1.35,1.03,1.73.44.25,1.38.55,2.81.89l3.72.89c1.63.39,2.86.91,3.69,1.57,1.29,1.02,1.93,2.49,1.93,4.41s-.76,3.61-2.27,4.92c-1.16,1-2.68,1.61-4.57,1.84v2.68h-4.23v-2.75c-1.69-.27-3.1-.85-4.22-1.74-1.61-1.29-2.42-3.06-2.42-5.3h4.31Z"/>
    <g>
      <path class="cls-3" d="m119.3,83.51l-7.55,7.42-18.68-18.68,12.38-12.38c9.23-9.23,9.38-24.26.15-33.49s-24.19-9.2-33.42.03l-22.19,22.15,19.46,19.46-1.45,1.45L5.82,7.31l1.45-1.45,34.15,34.15,17.18-17.18s-5.13-5.11-9.44-9.42c-2.57-2.57-10.77-13.41,17.19-13.41,30.95,0,51.13,8.8,59.03,16.7,7.9,7.9,16.76,28.1,16.76,59.05,0,27.95-10.84,19.75-13.41,17.19l-9.43-9.43Zm-22.89-32.89l-12.62,12.59-15.03-15.03,12.62-12.62c4.15-4.15,10.87-4.14,15.03.02,4.15,4.15,4.15,10.89,0,15.04Z"/>
      <path class="cls-6" d="m119.3,83.51l-7.55,7.42-18.68-18.68,12.38-12.38c9.23-9.23,9.38-24.26.15-33.49s-24.19-9.2-33.42.03l-22.19,22.15,19.46,19.46-1.45,1.45L5.82,7.31l1.45-1.45,34.15,34.15,17.18-17.18s-5.13-5.11-9.44-9.42c-2.57-2.57-10.77-13.41,17.19-13.41,30.95,0,51.13,8.8,59.03,16.7,7.9,7.9,16.76,28.1,16.76,59.05,0,27.95-10.84,19.75-13.41,17.19l-9.43-9.43Zm-22.89-32.89l-12.62,12.59-15.03-15.03,12.62-12.62c4.15-4.15,10.87-4.14,15.03.02,4.15,4.15,4.15,10.89,0,15.04Z"/>
    </g>
    <g>
      <path class="cls-4" d="m22.84,58.59l7.55-7.42,18.68,18.68-12.38,12.38c-9.23,9.23-9.38,24.26-.15,33.49,9.23,9.23,24.19,9.2,33.42-.03l22.14-22.1-19.53-19.53,1.45-1.45,62.18,62.18-1.45,1.45-34.08-34.08-17.13,17.13s5.13,5.11,9.44,9.42c2.57,2.57,10.77,13.41-17.19,13.41-30.95,0-51.13-8.8-59.03-16.7S0,97.3,0,66.35c0-27.95,10.84-19.75,13.41-17.19l9.43,9.43Zm22.89,32.89l12.62-12.59,15.03,15.03-12.62,12.62c-4.15,4.15-10.87,4.14-15.03-.02-4.15-4.15-4.15-10.89,0-15.04Z"/>
      <path class="cls-5" d="m22.84,58.59l7.55-7.42,18.68,18.68-12.38,12.38c-9.23,9.23-9.38,24.26-.15,33.49,9.23,9.23,24.19,9.2,33.42-.03l22.14-22.1-19.53-19.53,1.45-1.45,62.18,62.18-1.45,1.45-34.08-34.08-17.13,17.13s5.13,5.11,9.44,9.42c2.57,2.57,10.77,13.41-17.19,13.41-30.95,0-51.13-8.8-59.03-16.7S0,97.3,0,66.35c0-27.95,10.84-19.75,13.41-17.19l9.43,9.43Zm22.89,32.89l12.62-12.59,15.03,15.03-12.62,12.62c-4.15,4.15-10.87,4.14-15.03-.02-4.15-4.15-4.15-10.89,0-15.04Z"/>
    </g>
  </g>
</svg>